<?xml version="1.0" standalone="no"?><!DOCTYPE svg PUBLIC "-//W3C//DTD SVG 1.1//EN" "http://www.w3.org/Graphics/SVG/1.1/DTD/svg11.dtd">
<svg width="50" height="50" viewBox="0 0 50 50" version="1.1" xmlns="http://www.w3.org/2000/svg"><defs><style type="text/css"><![CDATA[
@font-face { font-family: ifont; src: url("//at.alicdn.com/t/font_1442373896_4754455.eot?#iefix") format("embedded-opentype"), url("//at.alicdn.com/t/font_1442373896_4754455.woff") format("woff"), url("//at.alicdn.com/t/font_1442373896_4754455.ttf") format("truetype"), url("//at.alicdn.com/t/font_1442373896_4754455.svg#ifont") format("svg"); }

]]></style></defs><g class="transform-group"><g transform="scale(0.048828125, 0.048828125)"><path d="M508.599042 64.487733c-245.655909 0-446.651666 200.995757-446.651666 446.651666 0 245.657956 200.995757 446.652689 446.651666 446.65269 245.657956 0 446.651666-200.995757 446.651666-446.65269 0-245.655909-200.994734-446.651666-446.651666-446.651666z m0 837.47277c-217.740116 0-390.82008-178.659029-390.82008-390.821104 0-217.740116 178.659029-390.82008 390.82008-390.820079 217.74114 0 390.821103 173.079964 390.821103 390.820079 0 217.746256-173.079964 390.821103-390.821103 390.821104z m156.324348-541.56434L458.352661 566.972009 352.270601 460.894042c-16.751522-16.750499-44.666292-16.750499-66.997904 0-11.164271 22.330588-11.164271 50.246381 5.586229 66.99688l133.992737 133.99376c16.750499 16.750499 44.666292 16.750499 61.417814 0l44.661176-44.666292 195.410552-195.409528c16.755616-16.745383 22.341844-44.661176 0-61.411675-16.746406-16.751522-44.662199-16.751522-61.417815-0.001024z m0 0" fill="#5288d7"></path></g></g></svg>